<svg width="24" height="24" viewBox="0 0 24 24" fill="none" xmlns="http://www.w3.org/2000/svg">
<g clip-path="url(#clip0_267_231)">
<path d="M1.41162 24.0003H9.17633L9.64692 20.6121L9.17633 16.9415L5.52927 16.4238L1.41162 16.9415V24.0003Z" fill="#003B68"/>
<path d="M4.38993 0L3.68404 2.82353H1.41162V7.05882L5.64692 7.44386L9.17633 7.05882L9.64692 4.15685L9.17633 0H4.38993Z" fill="#003B68"/>
<path d="M22.5883 21.176H16.9412L16.2354 20.6349L16.9412 19.7643H21.1765V14.276L21.8824 13.8584L22.5883 14.2757V21.176Z" fill="#005D81"/>
<path d="M21.8823 14.3974C23.0518 14.3974 23.9999 13.4493 23.9999 12.2798C23.9999 11.1102 23.0518 10.1621 21.8823 10.1621C20.7128 10.1621 19.7646 11.1102 19.7646 12.2798C19.7646 13.4493 20.7128 14.3974 21.8823 14.3974Z" fill="#FF0052"/>
<path d="M16.941 24.0003V16.9415L12.4939 16.4238L9.17627 16.9415V24.0003H16.941Z" fill="#00233F"/>
<path d="M4.94141 20.4704H9.1767L9.64729 19.7645L9.1767 19.0586H4.94141V20.4704Z" fill="#005D81"/>
<path d="M9.17627 19.0586H13.4116V20.4704H9.17627V19.0586Z" fill="#003B68"/>
<path d="M16.941 2.82353H14.6686L13.9627 0H9.17627V7.05882L13.239 7.76471L16.941 7.05882V2.82353Z" fill="#00233F"/>
<path d="M7.76465 3.5293V4.94106H9.17641L9.55288 4.23518L9.17641 3.5293H7.76465Z" fill="#005D81"/>
<path d="M0 7.05859V16.9409H9.17647L9.64706 12.2796L9.17647 7.05859H0Z" fill="#005D81"/>
<path d="M9.17627 7.05859H18.3527V16.9409H9.17627V7.05859Z" fill="#003B68"/>
<path d="M1.41162 15.5295H9.17633L9.5528 12.4236L9.17633 8.4707H1.41162V15.5295Z" fill="#E9F1FF"/>
<path d="M9.17627 8.4707H16.941V15.5295H9.17627V8.4707Z" fill="#D4E5FF"/>
<path d="M2.82373 9.88281V14.1181H9.17667L9.64726 12.0005L9.17667 9.88281H2.82373Z" fill="#D4E5FF"/>
<path d="M9.17627 9.88281H15.5292V14.1181H9.17627V9.88281Z" fill="#B5D6FF"/>
<path d="M9.88232 11.2939H11.2941V12.7057H9.88232V11.2939Z" fill="#FF0052"/>
<path d="M7.05859 11.2939H8.47036V12.7057H7.05859V11.2939Z" fill="#95EA1E"/>
<path d="M4.23535 11.2939H5.64712V12.7057H4.23535V11.2939Z" fill="#00DAF9"/>
<path d="M12.7061 11.2939H14.1178V12.7057H12.7061V11.2939Z" fill="#00ADFF"/>
<path d="M9.17627 3.5293H10.588V4.94106H9.17627V3.5293Z" fill="#003B68"/>
</g>
<defs>
<clipPath id="clip0_267_231">
<rect width="24" height="24" fill="white"/>
</clipPath>
</defs>
</svg>
