<svg width="24" height="24" viewBox="0 0 24 24" fill="none" xmlns="http://www.w3.org/2000/svg">
<path d="M1.41162 5.25V19.5L9.17633 21.75L11.9999 21L12.7057 13.5L11.9999 5.25H1.41162Z" fill="#005D81"/>
<path d="M12 5.25V21L14.8235 22.5L23.2448 19.5V5.25H12Z" fill="#003B68"/>
<path d="M2.82324 6.75V19.5L3.52912 20.25L4.94089 19.5L5.64677 13.5L4.94089 6.75H2.82324Z" fill="#00DAF9"/>
<path d="M12 21L14.8235 21.75L21.8824 19.5V6.75H19.0588L12 21Z" fill="#00ADFF"/>
<path d="M4.94141 0V19.5L9.1767 21.75L12.0002 21L12.7061 10.5L12.0002 0H4.94141Z" fill="#E9F1FF"/>
<path d="M12 0V21L14.8235 21.75L19.0588 19.5V0H12Z" fill="#D4E5FF"/>
<path d="M9.17647 21V19.5H0V20.25C0 22.3179 1.58353 24 3.52941 24H12L12.7059 22.5L12 21H9.17647Z" fill="#003B68"/>
<path d="M14.8235 19.5V21H12V24H20.4706C22.4165 24 24 22.3179 24 20.25V19.5H14.8235Z" fill="#00233F"/>
<path d="M7.09473 4.10059L8.09284 3.04009L9.09096 4.10059L8.09284 5.16109L7.09473 4.10059Z" fill="#005D81"/>
<path d="M14.9053 4.10156L15.9034 3.04106L16.9015 4.10156L15.9034 5.16206L14.9053 4.10156Z" fill="#003B68"/>
<path d="M7.09375 15.4492L8.09187 14.3887L9.08999 15.4492L8.09187 16.5097L7.09375 15.4492Z" fill="#005D81"/>
<path d="M14.9043 15.4502L15.9024 14.3897L16.9005 15.4502L15.9024 16.5107L14.9043 15.4502Z" fill="#003B68"/>
<path d="M11.2938 5.17773V7.12993C9.09231 6.88033 7.42398 9.37198 8.51109 11.5314C8.70139 11.9096 11.6529 14.9017 11.9997 15.2678L12.7056 10.8753L11.9997 5.17773H11.2938Z" fill="#005D81"/>
<path d="M12.7059 7.12993V5.17773H12V15.2678C12.3131 14.9374 15.2983 11.9097 15.4886 11.5315C16.5739 9.37553 14.9111 6.87993 12.7059 7.12993Z" fill="#003B68"/>
</svg>
