<svg width="24" height="24" viewBox="0 0 24 24" fill="none" xmlns="http://www.w3.org/2000/svg">
<g clip-path="url(#clip0_267_258)">
<path d="M1.41162 12.0003C1.41162 17.8521 6.14725 22.5886 11.9999 22.5886L12.4704 12.0003L11.9999 1.41211C6.14805 1.41211 1.41162 6.14773 1.41162 12.0003Z" fill="#005D81"/>
<path d="M12 1.41211V22.5886C17.8518 22.5886 22.5882 17.8529 22.5882 12.0003C22.5882 6.14858 17.8526 1.41211 12 1.41211Z" fill="#003B68"/>
<path d="M18.3529 12.0004C18.3529 8.49739 15.5031 5.64746 12 5.64746V18.3533C15.5031 18.3533 18.3529 15.5035 18.3529 12.0004Z" fill="#B5D6FF"/>
<path d="M5.64697 12.0004C5.64697 15.5035 8.4969 18.3533 11.9999 18.3533L12.7058 12.0004L11.9999 5.64746C8.4969 5.64746 5.64697 8.49739 5.64697 12.0004Z" fill="#E9F1FF"/>
<path d="M12.6874 2.84863L12.2076 3.52633L12.7061 4.26699C16.658 4.62482 19.7649 7.95635 19.7649 11.9999C19.7649 16.0435 16.658 19.3751 12.7061 19.7328L12.0933 20.4929L12.7061 21.1499C17.4255 20.7932 21.1767 16.8533 21.1767 11.9999C21.1767 7.10416 17.3783 3.19362 12.6874 2.84863Z" fill="#B5D6FF"/>
<path d="M4.2355 11.9998C4.2355 7.95624 7.34232 4.62471 11.2943 4.26692L11.8826 3.6704C11.6458 3.6704 11.528 2.83224 11.2943 2.84988C6.57474 3.20659 2.82373 7.1464 2.82373 11.9998C2.82373 16.8495 6.57093 20.7938 11.2963 21.1499L11.5296 20.4469L11.2943 19.7327C7.34232 19.3749 4.2355 16.0434 4.2355 11.9998Z" fill="#E9F1FF"/>
<path d="M11.2941 0V8.54165C9.91322 8.82306 8.82301 9.91322 8.5416 11.2941H0V12.7059H8.5416C8.82301 14.0868 9.91322 15.177 11.2941 15.4584V24H12L12.7059 12L12 0H11.2941Z" fill="#FF5760"/>
<path d="M15.4584 11.2941C15.1769 9.91322 14.0868 8.82306 12.7059 8.54165V0H12V24H12.7059V15.4584C14.0868 15.177 15.1769 14.0868 15.4584 12.7059H24V11.2941H15.4584Z" fill="#FF0052"/>
<path d="M11.2939 11.2939V12.7057H11.9998L12.4704 11.9998L11.9998 11.2939H11.2939Z" fill="#005D81"/>
<path d="M12 11.2939H12.7059V12.7057H12V11.2939Z" fill="#003B68"/>
</g>
<defs>
<clipPath id="clip0_267_258">
<rect width="24" height="24" fill="white"/>
</clipPath>
</defs>
</svg>
