<svg width="24" height="24" viewBox="0 0 24 24" fill="none" xmlns="http://www.w3.org/2000/svg">
<g clip-path="url(#clip0_267_311)">
<path d="M22.2815 18.667L21.1069 19.4501L21.7871 20.4703H14.1177V22.5879H7.76479V19.7296L7.07646 19.2588L6.35303 19.7291V23.9997H15.5295V21.8821H21.7871L21.1069 22.9023L22.2815 23.6853L23.9543 21.1762L22.2815 18.667Z" fill="#FF0052"/>
<path d="M7.05872 5.64746C5.1095 5.64746 3.34475 6.43753 2.06738 7.71494L2.82343 9.17687L4.06536 9.71292L7.05872 8.47099L7.76461 7.05923L7.05872 5.64746Z" fill="#005D81"/>
<path d="M2.82353 12.7059L1.41176 12L0 12.7059C0 14.6551 0.79007 16.4199 2.06748 17.6972L3.52941 16.9412L4.06546 15.6992L2.82353 12.7059Z" fill="#005D81"/>
<path d="M2.06748 7.71484C0.79007 8.99221 0 10.7569 0 12.7062H2.82353L4.06546 9.71282L2.06748 7.71484Z" fill="#FF5760"/>
<path d="M7.05872 16.9411L4.06536 15.6992L2.06738 17.6972C3.34475 18.9746 5.10945 19.7647 7.05872 19.7647L7.76461 18.3529L7.05872 16.9411Z" fill="#FF5760"/>
<path d="M10.776 14.7334L7.05859 16.9408V19.7644C9.36777 19.7644 11.4179 18.6555 12.7057 16.9412L10.776 14.7334Z" fill="#003B68"/>
<path d="M7.05859 5.64746V8.47099L10.0587 9.7197L11.2938 7.05885C10.1141 6.17268 8.64772 5.64746 7.05859 5.64746Z" fill="#FF0052"/>
<path d="M9.17658 0V2.11765H2.21315L2.89333 1.09741L1.71865 0.314353L0.0458984 2.82353L1.71865 5.33271L2.89333 4.54965L2.21315 3.52941H10.5883V1.41176H15.5295V4.26998L16.2354 4.65294L16.9413 4.27012V0H9.17658Z" fill="#FF5760"/>
<path d="M2.82373 12.706C2.82373 15.0414 4.72368 16.9413 7.05902 16.9413L7.76491 12.706L7.05902 8.4707C4.72368 8.4707 2.82373 10.3707 2.82373 12.706Z" fill="#E9F1FF"/>
<path d="M10.0587 9.71941C9.29121 8.94854 8.2297 8.4707 7.05859 8.4707V16.9413C8.65977 16.9413 10.0561 16.0481 10.776 14.7339L10.0587 9.71941Z" fill="#D4E5FF"/>
<path d="M8.4707 11.3409C8.4707 15.6224 11.954 19.1056 16.2354 19.1056L16.9413 12.0468L16.2354 3.57617C11.954 3.57617 8.4707 7.05942 8.4707 11.3409Z" fill="#FFB900"/>
<path d="M24.0001 11.3409C24.0001 7.05942 20.5168 3.57617 16.2354 3.57617V19.1056C20.5168 19.1056 24.0001 15.6224 24.0001 11.3409Z" fill="#FF9356"/>
<path d="M9.88232 11.3412C9.88232 14.8443 12.7322 17.6942 16.2353 17.6942L16.9411 11.3412L16.2353 4.98828C12.7322 4.98828 9.88232 7.83821 9.88232 11.3412Z" fill="#FFE100"/>
<path d="M16.2354 4.98828V17.6942C19.7384 17.6942 22.5883 14.8443 22.5883 11.3412C22.5883 7.83821 19.7384 4.98828 16.2354 4.98828Z" fill="#FFB900"/>
<path d="M19.7646 10.6357H21.1764V12.0475H19.7646V10.6357Z" fill="#FF9356"/>
<path d="M11.2939 10.6357H12.7057V12.0475H11.2939V10.6357Z" fill="#FFB900"/>
<path d="M14.1177 13.459V14.8707H15.5294V16.2825H16.2353L16.5883 14.659L16.2353 13.459H14.1177Z" fill="#FFB900"/>
<path d="M15.5294 9.9298C15.5294 9.54058 15.8461 9.22392 16.2353 9.22392L16.6353 8.04745L16.2353 6.40039H15.5294V7.93357C14.7078 8.22496 14.1177 9.00957 14.1177 9.9298C14.1177 11.0974 15.0676 12.0475 16.2353 12.0475L16.5883 11.3416L16.2353 10.6357C15.8461 10.6357 15.5294 10.319 15.5294 9.9298Z" fill="#FFB900"/>
<path d="M16.9412 12.7534C16.9412 13.1427 16.6246 13.4593 16.2354 13.4593V16.2828H16.9412V14.7496C17.7628 14.4582 18.353 13.6736 18.353 12.7534C18.353 11.5858 17.403 10.6357 16.2354 10.6357V12.0475C16.6246 12.0475 16.9412 12.3642 16.9412 12.7534Z" fill="#FF9356"/>
<path d="M18.353 9.22392V7.81216H16.9412V6.40039H16.2354V9.22392H18.353Z" fill="#FF9356"/>
</g>
<defs>
<clipPath id="clip0_267_311">
<rect width="24" height="24" fill="white"/>
</clipPath>
</defs>
</svg>
