<svg width="24" height="24" viewBox="0 0 24 24" fill="none" xmlns="http://www.w3.org/2000/svg">
<g clip-path="url(#clip0_267_435)">
<path d="M18.3281 21.1871C18.3281 23.378 14.227 23.9996 12 23.9996C9.77156 23.9996 5.67188 23.3776 5.67188 21.1871C5.67188 19.5877 7.95656 18.848 9.53625 18.5762H14.4637C16.0402 18.8476 18.3281 19.5863 18.3281 21.1871Z" fill="#76E2F8"/>
<path d="M18.3281 21.1871C18.3281 23.378 14.227 23.9996 12 23.9996V18.5762H14.4637C16.0402 18.8476 18.3281 19.5863 18.3281 21.1871Z" fill="#4BB9EC"/>
<path d="M12 0C6.96 0 2.85938 4.10063 2.85938 9.14062C2.85938 11.392 3.68531 13.5558 5.18203 15.2288L12 22.9533L18.8152 15.2325C20.3147 13.5558 21.1406 11.392 21.1406 9.14062C21.1406 4.10063 17.04 0 12 0Z" fill="#FF4949"/>
<path d="M21.1406 9.14062C21.1406 11.392 20.3147 13.5558 18.8152 15.2325L12 22.9533V0C17.04 0 21.1406 4.10063 21.1406 9.14062Z" fill="#F30051"/>
<path d="M12.7033 11.42V12.6561H14.1095V14.0623H9.89078V12.6561H11.297V11.42C10.9792 11.584 10.6281 11.6717 10.2559 11.6717C8.88344 11.6717 7.80859 10.5312 7.80859 9.07527C7.80859 7.54668 8.99688 6.54355 10.6417 5.15559C11.5497 4.38871 11.5361 4.39059 12.0002 3.99121C12.4412 4.3709 12.4572 4.3948 13.3591 5.15559C14.8783 6.43809 16.1917 7.48527 16.1917 9.07527C16.1917 10.5312 15.1169 11.6717 13.7444 11.6717C13.3722 11.6717 13.0211 11.584 12.7033 11.42Z" fill="#575F64"/>
<path d="M12.7031 11.42V12.6561H14.1094V14.0623H12V3.99121C12.4411 4.3709 12.457 4.3948 13.3589 5.15559C14.8781 6.43809 16.1916 7.48527 16.1916 9.07527C16.1916 10.5312 15.1167 11.6717 13.7442 11.6717C13.372 11.6717 13.0209 11.584 12.7031 11.42Z" fill="#474F54"/>
</g>
<defs>
<clipPath id="clip0_267_435">
<rect width="24" height="24" fill="white"/>
</clipPath>
</defs>
</svg>
