<svg width="24" height="24" viewBox="0 0 24 24" fill="none" xmlns="http://www.w3.org/2000/svg">
<g clip-path="url(#clip0_267_398)">
<path d="M20.4852 3.51465L19.0588 4.47051L17.9868 6.0131L20.4706 11.9999L22.2275 12.4705L24 11.9999C24 8.79465 22.7518 5.78119 20.4852 3.51465Z" fill="#00DF6F"/>
<path d="M3.52941 11.9999L1.58433 11.5293L0 11.9999C0 15.2052 1.24819 18.2186 3.51473 20.4852L5.00391 19.4666L6.01318 17.9867L3.52941 11.9999Z" fill="#95EA1E"/>
<path d="M3.51465 3.51473L4.12542 5.38042L6.0131 6.01322L11.9999 3.52941L12.7058 2.11765L11.9999 0C8.7946 0 5.78119 1.24819 3.51465 3.51473Z" fill="#95EA1E"/>
<path d="M20.4852 3.51473C18.2187 1.24819 15.2053 0 12 0V3.52941L17.9868 6.01318L20.4852 3.51473Z" fill="#003B68"/>
<path d="M3.51473 3.51465C1.24819 5.78119 0 8.7946 0 11.9999H3.52941L6.01318 6.0131L3.51473 3.51465Z" fill="#005D81"/>
<path d="M17.9867 17.9873L11.9999 20.4711L11.5293 22.4475L11.9999 24.0005C15.2052 24.0005 18.2186 22.7523 20.4851 20.4858L19.6392 19.1693L17.9867 17.9873Z" fill="#00DF6F"/>
<path d="M20.4706 12L17.9868 17.9868L20.4853 20.4853C22.7518 18.2187 24 15.2053 24 12H20.4706Z" fill="#003B68"/>
<path d="M6.0131 17.9873L3.51465 20.4858C5.78119 22.7523 8.79465 24.0005 11.9999 24.0005V20.4711L6.0131 17.9873Z" fill="#005D81"/>
<path d="M3.5293 11.9999C3.5293 16.6781 7.32172 20.4705 11.9999 20.4705L12.7058 11.9999L11.9999 3.5293C7.32172 3.5293 3.5293 7.32172 3.5293 11.9999Z" fill="#E9F1FF"/>
<path d="M12 3.5293V20.4705C16.6782 20.4705 20.4706 16.6781 20.4706 11.9999C20.4706 7.32172 16.6782 3.5293 12 3.5293Z" fill="#D4E5FF"/>
<path d="M11.2941 7.32031V9.15768C9.08976 8.92248 7.42552 11.2703 8.51141 13.3003C8.70105 13.6551 11.6639 16.483 12 16.8169L12.7059 12.0005L12 7.32031H11.2941Z" fill="#005D81"/>
<path d="M12.7059 9.15768V7.32031H12V16.8169C12.3152 16.5038 15.2976 13.6571 15.4885 13.3005L15.4886 13.3004C16.5739 11.2713 14.9112 8.92238 12.7059 9.15768Z" fill="#003B68"/>
</g>
<defs>
<clipPath id="clip0_267_398">
<rect width="24" height="24" fill="white"/>
</clipPath>
</defs>
</svg>
