<svg width="63" height="62" viewBox="0 0 63 62" fill="none" xmlns="http://www.w3.org/2000/svg">
<path d="M29.9042 26.9445C26.0694 31.9146 17.0122 34.8538 12.7233 36.0143C13.1522 37.629 13.7955 39.2058 14.6659 40.7195C15.0191 41.3376 15.4102 41.9305 15.8391 42.5108C16.0283 42.4351 16.2301 42.3594 16.4319 42.2837C21.1245 40.442 27.0912 37.4776 33.2092 33.9456C39.3272 30.4135 44.8775 26.7301 48.8132 23.5891C48.9772 23.4503 49.1412 23.3242 49.3052 23.1854C49.0151 22.5295 48.6871 21.8862 48.3339 21.2807C47.905 20.5364 47.4383 19.83 46.9211 19.1614C46.9084 19.1362 46.8832 19.1236 46.8706 19.0984C46.202 18.2406 45.4704 17.4333 44.6883 16.7016C40.5255 18.6316 33.4236 22.3907 29.9042 26.9445ZM12.4458 34.8412C16.0535 33.8573 25.2747 30.9559 28.9455 26.2003C32.3388 21.7979 38.6712 18.2027 43.6791 15.8312C41.8501 14.3553 39.7434 13.22 37.4602 12.4884C36.224 13.0056 29.5131 16.0078 26.082 20.4481C22.4869 25.1028 14.3001 27.2599 12.3449 27.714C11.9412 30.0603 11.9664 32.4697 12.4458 34.8412ZM25.1233 19.7291C28.0499 15.9321 33.0578 13.2326 35.6059 12.009C30.8755 10.9747 25.9937 11.7315 21.7679 14.1787C16.987 16.9413 13.8208 21.432 12.6098 26.4147C15.1327 25.7588 22.0832 23.6648 25.1233 19.7291ZM57.7695 15.8438C56.7099 14.0021 52.1434 14.103 45.7605 16.0583C46.4039 16.6764 47.022 17.345 47.577 18.0514C53.3544 15.9574 54.6033 16.689 55.0322 17.4206C55.4737 18.1901 55.4484 19.6912 50.4279 23.8414C50.163 24.0685 49.8728 24.2955 49.5701 24.5352C45.5839 27.714 39.9831 31.4353 33.8147 34.9926C27.6462 38.5498 21.6291 41.5395 16.8735 43.4064C13.1648 44.8571 11.0204 45.3364 9.74629 45.3364C8.62361 45.3364 8.19472 44.9706 7.96766 44.5795C7.53876 43.8353 7.53876 42.3972 12.244 38.4363C11.916 37.5911 11.6511 36.7334 11.4366 35.863C6.54222 40.4168 4.17071 44.3146 5.23032 46.1563C6.1764 47.7836 9.96074 47.9098 15.3597 46.4717C16.268 46.232 17.214 45.9545 18.198 45.6265C18.2358 45.6139 18.261 45.6013 18.2989 45.5887C23.4834 43.8857 29.4374 41.1484 35.3915 37.7047C41.3455 34.2609 46.694 30.4766 50.7685 26.831C50.7937 26.8058 50.8189 26.7806 50.8442 26.7679C51.601 26.0868 52.32 25.4056 52.9886 24.737C56.9243 20.8139 58.7156 17.4711 57.7695 15.8438ZM35.997 38.7895C30.3457 42.044 24.6944 44.6931 19.6739 46.4339C21.2381 47.6322 22.9662 48.5783 24.7575 49.2343C26.1198 47.7836 32.0991 41.7413 37.927 40.9592C43.4899 40.2149 49.444 35.8882 50.5036 35.0809C50.9703 32.9364 51.0712 30.7037 50.7811 28.4583C46.7571 31.9525 41.6482 35.535 35.997 38.7895ZM38.091 42.1702C33.1461 42.8387 27.848 47.8215 26.0442 49.6632C31.0395 51.1264 36.5394 50.5588 41.2319 47.8467C45.5082 45.3743 48.5736 41.4512 50.0242 36.9478C47.6779 38.5498 42.834 41.5268 38.091 42.1702Z" fill="url(#paint0_linear_267_1877)"/>
<defs>
<linearGradient id="paint0_linear_267_1877" x1="31.4997" y1="11.5586" x2="31.4997" y2="50.4487" gradientUnits="userSpaceOnUse">
<stop stop-color="#E3043B"/>
<stop offset="1" stop-color="#004594"/>
</linearGradient>
</defs>
</svg>
