<svg width="42" height="42" viewBox="0 0 42 42" fill="none" xmlns="http://www.w3.org/2000/svg">
<g clip-path="url(#clip0_267_1951)">
<path d="M39.3717 19.11L26.2938 0.304138C26.1586 0.114272 25.9403 0.00107774 25.7072 0H16.2934C16.0604 0.00107774 15.842 0.114272 15.7069 0.304138L2.62894 19.11C2.47101 19.3321 2.44918 19.6234 2.57225 19.8665C2.69533 20.1096 2.94303 20.2644 3.21549 20.2686H9.05204C9.24536 20.2686 9.43065 20.3459 9.56666 20.4833C9.70267 20.6206 9.77811 20.8067 9.77618 21V41.2686C9.77425 41.4619 9.84969 41.648 9.9857 41.7853C10.1217 41.9227 10.307 42 10.5003 42H31.5003C31.6936 42 31.8789 41.9227 32.0149 41.7853C32.1509 41.648 32.2264 41.4619 32.2245 41.2686V21C32.2225 20.8067 32.298 20.6206 32.434 20.4833C32.57 20.3459 32.7553 20.2686 32.9486 20.2686H38.7851C39.0576 20.2644 39.3053 20.1096 39.4284 19.8665C39.5515 19.6234 39.5296 19.3321 39.3717 19.11Z" fill="#FF5364"/>
<path d="M38.7847 20.2686H29.3709C29.6434 20.2645 29.8911 20.1096 30.0141 19.8665C30.1372 19.6234 30.1154 19.3321 29.9575 19.11L16.8795 0.304138C16.7443 0.114272 16.526 0.00107774 16.293 0H25.7068C25.9398 0.00107774 26.1581 0.114272 26.2933 0.304138L39.3712 19.11C39.5292 19.3321 39.551 19.6234 39.4279 19.8665C39.3049 20.1096 39.0572 20.2645 38.7847 20.2686Z" fill="#DF4D60"/>
<path d="M32.949 20.2686C32.7557 20.2685 32.5704 20.3458 32.4344 20.4832C32.2983 20.6206 32.2229 20.8066 32.2248 20.9999V41.2686C32.2268 41.4619 32.1513 41.6479 32.0153 41.7853C31.8793 41.9227 31.694 41.9999 31.5007 41.9999H22.0869C22.2802 41.9999 22.4655 41.9227 22.6015 41.7853C22.7375 41.6479 22.813 41.4619 22.8111 41.2686V20.9999C22.8091 20.8066 22.8846 20.6206 23.0206 20.4832C23.1566 20.3458 23.3419 20.2685 23.5352 20.2686H32.949Z" fill="#802D40"/>
<path d="M12.6724 24.6207C12.2724 24.6207 11.9482 24.2965 11.9482 23.8966V21.7241C11.9482 21.3242 12.2724 21 12.6724 21C13.0723 21 13.3965 21.3242 13.3965 21.7241V23.8966C13.3965 24.2965 13.0723 24.6207 12.6724 24.6207Z" fill="#FB7B76"/>
<path d="M12.6724 39.1033C12.2724 39.1033 11.9482 38.7791 11.9482 38.3792V27.5171C11.9482 27.1172 12.2724 26.793 12.6724 26.793C13.0723 26.793 13.3965 27.1172 13.3965 27.5171V38.3792C13.3965 38.7791 13.0723 39.1033 12.6724 39.1033Z" fill="#FB7B76"/>
</g>
<defs>
<clipPath id="clip0_267_1951">
<rect width="42" height="42" fill="white"/>
</clipPath>
</defs>
</svg>
