<svg width="24" height="24" viewBox="0 0 24 24" fill="none" xmlns="http://www.w3.org/2000/svg">
<g clip-path="url(#clip0_267_363)">
<path d="M20.4852 3.51465L19.0588 4.47051L17.9868 6.0131L20.4706 11.9999L22.2275 12.4705L24 11.9999C24 8.79465 22.7518 5.78119 20.4852 3.51465Z" fill="#FF0052"/>
<path d="M3.52941 11.9999L1.58433 11.5293L0 11.9999C0 15.2052 1.24819 18.2186 3.51473 20.4851L5.00391 19.4665L6.01318 17.9867L3.52941 11.9999Z" fill="#FF5760"/>
<path d="M3.51465 3.51473L4.12538 5.38042L6.0131 6.01322L11.9999 3.52941L12.7058 2.11765L11.9999 0C8.7946 0 5.78114 1.24819 3.51465 3.51473Z" fill="#FF5760"/>
<path d="M20.4852 3.51473C18.2187 1.24819 15.2053 0 12 0V3.52941L17.9868 6.01318L20.4852 3.51473Z" fill="#003B68"/>
<path d="M3.51473 3.51465C1.24819 5.78119 0 8.7946 0 11.9999H3.52941L6.01318 6.0131L3.51473 3.51465Z" fill="#005D81"/>
<path d="M17.9867 17.9873L11.9999 20.4711L11.5293 22.4475L11.9999 24.0005C15.2052 24.0005 18.2186 22.7523 20.4851 20.4857L19.6392 19.1692L17.9867 17.9873Z" fill="#FF0052"/>
<path d="M20.4706 12L17.9868 17.9868L20.4853 20.4853C22.7518 18.2187 24 15.2053 24 12H20.4706Z" fill="#003B68"/>
<path d="M6.0131 17.9873L3.51465 20.4858C5.78119 22.7523 8.7946 24.0005 11.9999 24.0005V20.4711L6.0131 17.9873Z" fill="#005D81"/>
<path d="M3.5293 11.9999C3.5293 16.6781 7.32172 20.4705 11.9999 20.4705L12.7058 11.9999L11.9999 3.5293C7.32172 3.5293 3.5293 7.32172 3.5293 11.9999Z" fill="#E9F1FF"/>
<path d="M12 3.5293V20.4705C16.6782 20.4705 20.4706 16.6781 20.4706 11.9999C20.4706 7.32172 16.6782 3.5293 12 3.5293Z" fill="#D4E5FF"/>
<path d="M12.4078 9.39604L11.9999 7.76465H11.2941V10.0037C10.6934 10.2167 10.2167 10.6934 10.0037 11.2941H7.76465V12.7058H10.0037C10.2167 13.3065 10.6934 13.7831 11.2941 13.9962V16.2352H11.9999L12.4705 14.3529L12.4078 9.39604Z" fill="#005D81"/>
<path d="M13.9962 11.2941C13.7832 10.6934 13.3065 10.2167 12.7059 10.0037V7.76465H12V16.2352H12.7059V13.9962C13.3065 13.7831 13.7832 13.3065 13.9962 12.7058H16.2353V11.2941H13.9962Z" fill="#003B68"/>
</g>
<defs>
<clipPath id="clip0_267_363">
<rect width="24" height="24" fill="white"/>
</clipPath>
</defs>
</svg>
