<svg width="24" height="24" viewBox="0 0 24 24" fill="none" xmlns="http://www.w3.org/2000/svg">
<g clip-path="url(#clip0_267_343)">
<path d="M3.55177 3.55176C1.38736 5.71616 0 8.70445 0 12L0.673594 12.7031H3.67903L4.26562 12C4.26562 9.8676 5.13305 7.93401 6.53353 6.53352L6.40017 5.69704L4.70794 4.0048L3.55177 3.55176Z" fill="#E1E4FB"/>
<path d="M4.26562 12H0C0 15.2955 1.38736 18.2838 3.55177 20.4482L4.82227 19.8809L6.31931 18.6651L6.53353 17.4665C5.13305 16.066 4.26562 14.1324 4.26562 12Z" fill="#FF507E"/>
<path d="M6.53352 17.4668L3.55176 20.4486C5.71616 22.613 8.70445 24.0003 12 24.0003L12.7031 23.2385V20.4671L12 19.7347C9.8676 19.7347 7.93401 18.8673 6.53352 17.4668Z" fill="#E1E4FB"/>
<path d="M17.4665 17.4668C16.066 18.8673 14.1324 19.7347 12 19.7347V24.0003C15.2955 24.0003 18.2838 22.613 20.4482 20.4486L20.0018 19.299L18.6525 17.9497L17.4665 17.4668Z" fill="#F40F78"/>
<path d="M19.7342 12C19.7342 14.1324 18.8668 16.066 17.4663 17.4665L20.4481 20.4482C22.6125 18.2838 23.9998 15.2955 23.9998 12L23.3853 11.2969H20.5263L19.7342 12Z" fill="#C5C9F7"/>
<path d="M20.4483 3.55176L19.251 4.04591L17.3174 5.97951L17.4665 6.53352C18.867 7.93401 19.7344 9.8676 19.7344 12H24C24 8.70445 22.6127 5.71616 20.4483 3.55176Z" fill="#F40F78"/>
<path d="M12 0L11.2969 0.467578V3.65039L12 4.26562C14.1324 4.26562 16.066 5.13305 17.4665 6.53353L20.4482 3.55177C18.2838 1.38736 15.2955 0 12 0Z" fill="#C5C9F7"/>
<path d="M3.55176 3.55177L6.53352 6.53353C7.93401 5.13305 9.8676 4.26562 12 4.26562V0C8.70445 0 5.71616 1.38736 3.55176 3.55177Z" fill="#FF507E"/>
<path d="M12 4.26562C7.73902 4.26562 4.26562 7.73902 4.26562 12C4.26562 16.2609 7.73902 19.7344 12 19.7344C16.261 19.7344 19.7344 16.2609 19.7344 12C19.7344 7.73902 16.261 4.26562 12 4.26562Z" fill="#F40F78"/>
<path d="M19.7344 12C19.7344 16.2609 16.261 19.7344 12 19.7344V4.26562C16.261 4.26562 19.7344 7.73902 19.7344 12Z" fill="#CE0067"/>
<path d="M12 5.67188C8.51255 5.67188 5.67188 8.51245 5.67188 12C5.67188 15.4875 8.51255 18.3281 12 18.3281C15.4875 18.3281 18.3281 15.4875 18.3281 12C18.3281 8.51245 15.4875 5.67188 12 5.67188Z" fill="#495A79"/>
<path d="M18.3281 12C18.3281 15.4875 15.4875 18.3281 12 18.3281V5.67188C15.4875 5.67188 18.3281 8.51245 18.3281 12Z" fill="#42516D"/>
<path d="M14.1095 13.4062C14.1095 14.2922 13.5469 15.0797 12.7173 15.389H12.7032V16.2188C12.7032 16.6125 12.3939 16.9219 12.0001 16.9219C11.6063 16.9219 11.297 16.6125 11.297 16.2188V15.389C10.8329 15.2343 10.397 14.9391 10.0173 14.475C9.76412 14.1796 9.80635 13.7437 10.1017 13.4906C10.397 13.2375 10.8329 13.2796 11.086 13.575C11.3814 13.9266 11.7048 14.1094 12.0001 14.1094C12.0845 14.1094 12.1689 14.0953 12.2392 14.0671C12.5204 13.9688 12.7033 13.7016 12.7033 13.4062C12.7033 13.0125 12.3939 12.7031 12.0001 12.7031C10.8329 12.7031 9.89077 11.761 9.89077 10.5938C9.89077 9.76402 10.3549 8.96255 11.297 8.62495V7.78125C11.297 7.38745 11.6064 7.07812 12.0001 7.07812C12.3939 7.07812 12.7033 7.38745 12.7033 7.78125V8.62495C13.0689 8.75156 13.4205 8.93438 13.7439 9.2437C14.0251 9.51089 14.0251 9.96089 13.758 10.2422C13.4908 10.5235 13.0408 10.5234 12.7595 10.2563C12.5204 10.0172 12.2532 9.89062 12.0001 9.89062C11.9017 9.89062 11.8173 9.90469 11.7329 9.94683C11.4657 10.0594 11.297 10.3125 11.297 10.5938C11.297 10.9875 11.6063 11.2969 12.0001 11.2969C13.1673 11.2969 14.1095 12.239 14.1095 13.4062Z" fill="#E1E4FB"/>
<path d="M14.1094 13.4062C14.1094 14.2922 13.5468 15.0797 12.7172 15.389H12.7031V16.2188C12.7031 16.6125 12.3938 16.9219 12 16.9219V14.1094C12.0844 14.1094 12.1687 14.0953 12.239 14.0671C12.5203 13.9688 12.7031 13.7016 12.7031 13.4062C12.7031 13.0125 12.3938 12.7031 12 12.7031V11.2969C13.1672 11.2969 14.1094 12.239 14.1094 13.4062Z" fill="#C5C9F7"/>
<path d="M12.7593 10.2563C12.5203 10.0172 12.2531 9.89062 12 9.89062V7.07812C12.3938 7.07812 12.7031 7.38745 12.7031 7.78125V8.62495C13.0688 8.75156 13.4203 8.93438 13.7438 9.2437C14.025 9.51089 14.025 9.96089 13.7578 10.2422C13.4906 10.5235 13.0406 10.5234 12.7593 10.2563Z" fill="#C5C9F7"/>
</g>
<defs>
<clipPath id="clip0_267_343">
<rect width="24" height="24" fill="white"/>
</clipPath>
</defs>
</svg>
