<svg width="24" height="24" viewBox="0 0 24 24" fill="none" xmlns="http://www.w3.org/2000/svg">
<path d="M10.1967 1.55692L6.875 0.134831L7.95207 5.62044L10.1703 6.32566L11.9657 5.61869L12.504 3.37209L11.9657 0.0078125L10.1967 1.55692Z" fill="#D06100"/>
<path d="M17.0566 0.142431L13.7526 1.55689L11.9747 0L11.9658 0.00777665V5.61866L13.8148 6.00603L16.047 5.62007L17.0566 0.142431Z" fill="#AB4B00"/>
<path d="M10.5739 8.0459L7.83245 8.44147C7.81523 8.46975 8.21771 7.81194 2.02206 17.937C0.421145 20.742 2.69564 23.9998 6.21189 23.9998H12.0001L12.5383 14.9035L12.0001 8.44656L10.5739 8.0459Z" fill="#D06100"/>
<path d="M21.978 17.9369C15.7804 7.8083 16.1882 8.47488 16.1708 8.44641L13.6146 7.89648L12 8.44641V23.9997C18.1896 23.9991 17.8194 24.0015 17.9419 23.9974C21.3749 23.9043 23.5536 20.6971 21.978 17.9369Z" fill="#AB4B00"/>
<path d="M7.96376 5.61914C7.07205 5.61914 6.34912 6.25221 6.34912 7.03308C6.34912 7.81395 7.07205 8.44702 7.96376 8.44702H12.0004L12.5386 7.12734L12.0004 5.61914H7.96376Z" fill="#AB4B00"/>
<path d="M16.0366 5.61914H12V8.44702H16.0366C16.9283 8.44702 17.6512 7.81395 17.6512 7.03308C17.6512 6.25221 16.9283 5.61914 16.0366 5.61914Z" fill="#803400"/>
<path d="M9.55273 18.344V19.7579H11.1674V21.1718H12.0003L12.5385 19.7573L12.0003 18.3428C11.923 18.3449 11.0744 18.3434 9.55273 18.344Z" fill="#FFE100"/>
<path d="M11.1674 12.8099C10.2277 13.1018 9.55273 13.8876 9.55273 14.8093C9.55273 15.8743 10.4669 16.8891 12.0003 16.9313L12.5385 16.1997L12.0003 15.5168C11.9917 15.5167 11.9833 15.5162 11.9747 15.5162C11.5295 15.5162 11.1674 15.1991 11.1674 14.8093C11.1674 14.4194 11.5296 14.1023 11.9747 14.1023H12.0003L12.5385 12.8298L12.0003 11.2744H11.1674V12.8099Z" fill="#FFE100"/>
<path d="M14.3964 14.1023V12.6884H12.7818V11.2744H12V14.1023H14.3964Z" fill="#FFB900"/>
<path d="M12.7818 17.6369C12.7818 18.0192 12.4333 18.3308 12 18.3427V21.1717H12.7818V19.6362C13.7214 19.3444 14.3964 18.5586 14.3964 17.6369C14.3964 16.475 13.3236 15.5287 12 15.5166V16.9311C12.4333 16.943 12.7818 17.2546 12.7818 17.6369Z" fill="#FFB900"/>
</svg>
