<svg width="24" height="24" viewBox="0 0 24 24" fill="none" xmlns="http://www.w3.org/2000/svg">
<g clip-path="url(#clip0_267_273)">
<path d="M4.94118 5.64746H1.41176C0.632094 5.64746 0 6.27956 0 7.05923V7.38864L0.705882 9.17687L4.94118 8.47099L6.35294 7.05923L4.94118 5.64746Z" fill="#003B68"/>
<path d="M24.0001 5.64746H19.0589L18.353 7.05923L19.0589 8.47099L21.8824 9.17687L24.0001 8.47099V5.64746Z" fill="#00233F"/>
<path d="M8.47082 0L4.94141 4.23529V8.47059L7.05905 9.17647L9.1767 8.47059L12.0002 5.64706L12.4708 2.89412L12.0002 0H8.47082Z" fill="#95EA1E"/>
<path d="M15.5294 0H12V5.64706L14.8235 8.47059L17.1059 8.76471L19.0588 8.47059V4.23529L15.5294 0Z" fill="#00DF6F"/>
<path d="M8.47082 0.705882V0H4.94141V4.23529C6.89058 4.23529 8.47082 2.65506 8.47082 0.705882Z" fill="#00DF6F"/>
<path d="M15.5293 0V0.705882C15.5293 2.65506 17.1095 4.23529 19.0587 4.23529V0H15.5293Z" fill="#00AC58"/>
<path d="M9.17627 8.47099L10.8233 8.88276L11.9998 8.47099L12.4704 7.05923L11.9998 5.64746C10.4429 5.64746 9.17627 6.9141 9.17627 8.47099Z" fill="#00DF6F"/>
<path d="M14.8235 8.47099C14.8235 6.9141 13.5569 5.64746 12 5.64746V8.47099L13.1059 9.10628L14.8235 8.47099Z" fill="#00AC58"/>
<path d="M1.41176 8.47036C0.632 8.47036 0 7.83836 0 7.05859V21.1762C0 22.7329 1.26682 23.9998 2.82353 23.9998H4.23529L4.94118 23.2939L5.64706 23.9998H12L12.7059 16.9409L12 8.47036H5.64706L4.94118 9.17624L4.23529 8.47036H1.41176Z" fill="#005D81"/>
<path d="M24 8.4707H12V24.0001H24V19.0553L23.5294 16.4236L24 13.4082V8.4707Z" fill="#003B68"/>
<path d="M24.0002 19.0553H17.6473C16.0879 19.0553 14.8237 17.7911 14.8237 16.2317C14.8237 14.6723 16.0879 13.4082 17.6473 13.4082H24.0002V19.0553Z" fill="#00233F"/>
<path d="M17.647 15.5254H19.0587V16.9372H17.647V15.5254Z" fill="#D4E5FF"/>
<path d="M4.23535 8.4707H5.64712V12.0001H4.23535V8.4707Z" fill="#E9F1FF"/>
<path d="M4.23535 13.4121H5.64712V15.5298H4.23535V13.4121Z" fill="#E9F1FF"/>
<path d="M4.23535 16.9414H5.64712V19.0591H4.23535V16.9414Z" fill="#E9F1FF"/>
<path d="M4.23535 20.4707H5.64712V24.0001H4.23535V20.4707Z" fill="#E9F1FF"/>
</g>
<defs>
<clipPath id="clip0_267_273">
<rect width="24" height="24" fill="white"/>
</clipPath>
</defs>
</svg>
