<svg width="32" height="32" viewBox="0 0 32 32" fill="none" xmlns="http://www.w3.org/2000/svg">
<g clip-path="url(#clip0_267_1063)">
<path d="M16 32C24.8366 32 32 24.8366 32 16C32 7.16344 24.8366 0 16 0C7.16344 0 0 7.16344 0 16C0 24.8366 7.16344 32 16 32Z" fill="#FF5364"/>
<path d="M15.9963 16.7895L7.5625 12.582V20.942C7.56365 21.3659 7.73253 21.772 8.03222 22.0717C8.33191 22.3714 8.73805 22.5403 9.16187 22.5414H22.8381C23.262 22.5403 23.6681 22.3714 23.9678 22.0717C24.2675 21.772 24.4363 21.3659 24.4375 20.942V12.6702L15.9963 16.7895Z" fill="white"/>
<path d="M16.0037 15.2099L24.4375 11.0936V11.0574C24.4363 10.6336 24.2675 10.2274 23.9678 9.92773C23.6681 9.62804 23.262 9.45916 22.8381 9.45801H9.16187C8.7478 9.45883 8.35009 9.61978 8.05198 9.90717C7.75387 10.1946 7.57847 10.5861 7.5625 10.9999L16.0037 15.2099Z" fill="white"/>
</g>
<defs>
<clipPath id="clip0_267_1063">
<rect width="32" height="32" fill="white"/>
</clipPath>
</defs>
</svg>
