<svg width="63" height="62" viewBox="0 0 63 62" fill="none" xmlns="http://www.w3.org/2000/svg">
<path d="M31.5058 33.9332C26.1952 33.9332 21.8684 38.26 21.8684 43.5707C21.8684 48.8814 26.1952 53.2081 31.5058 53.2081C36.8165 53.2081 41.1433 48.8814 41.1433 43.5707C41.1307 38.26 36.8165 33.9332 31.5058 33.9332ZM37.9771 41.729L35.7443 44.6934L35.8074 48.402C35.8074 48.6038 35.7191 48.7931 35.5551 48.9066C35.4542 48.9823 35.328 49.0201 35.2019 49.0201C35.1388 49.0201 35.0631 49.0075 35 48.9823L31.4932 47.7713L27.9864 48.9823C27.7972 49.0453 27.5954 49.0201 27.4314 48.894C27.2674 48.7804 27.1791 48.5912 27.1791 48.3894L27.2422 44.6808L25.0094 41.7164C24.8959 41.5524 24.858 41.3505 24.9211 41.1613C24.9842 40.9721 25.1355 40.8333 25.3248 40.7703L28.8694 39.6854L31.0013 36.6454C31.1148 36.4814 31.304 36.3931 31.4932 36.3931C31.6951 36.3931 31.8717 36.494 31.9852 36.6454L34.117 39.6854L37.6617 40.7703C37.8509 40.8333 38.0023 40.9721 38.0653 41.1613C38.1284 41.3632 38.0906 41.565 37.9771 41.729ZM33.2466 40.5684L31.4932 38.0708L29.7398 40.5684C29.6641 40.682 29.5506 40.7577 29.4245 40.7955L26.5105 41.6911L28.3522 44.1257C28.4279 44.2392 28.4784 44.3654 28.4784 44.5042L28.4279 47.5568L31.3166 46.5603C31.3797 46.5351 31.4428 46.5225 31.5185 46.5225C31.5815 46.5225 31.6572 46.5351 31.7203 46.5603L34.609 47.5568L34.5585 44.5042C34.5585 44.3654 34.5964 44.2392 34.6847 44.1257L36.5264 41.6911L33.6125 40.7955C33.4359 40.7577 33.3349 40.682 33.2466 40.5684ZM45.0916 40.3666C44.9781 39.8873 44.6249 39.4331 44.2464 38.9664C43.9437 38.588 43.6283 38.1969 43.4139 37.7428C43.1868 37.2887 43.0733 36.7967 42.9598 36.3174C42.821 35.7371 42.6949 35.2073 42.4047 34.8415C42.1146 34.4757 41.61 34.236 41.0802 33.9837C40.6387 33.7693 40.1846 33.5548 39.7935 33.2395C39.4025 32.9241 39.0871 32.533 38.7844 32.1546C38.4186 31.6879 38.0654 31.2464 37.6491 31.0445C37.2202 30.8301 36.6525 30.8301 36.0597 30.8175C35.5677 30.8049 35.0505 30.8049 34.5585 30.6913C34.0792 30.5778 33.6125 30.3634 33.1709 30.1615C32.5907 29.8966 32.0483 29.6317 31.5185 29.6317C30.9886 29.6317 30.4462 29.884 29.866 30.1615C29.4245 30.3634 28.9703 30.5778 28.4784 30.6913C27.9738 30.8049 27.4692 30.8175 26.9773 30.8175C26.3718 30.8301 25.8041 30.8301 25.3878 31.0445C24.9589 31.2464 24.6184 31.6879 24.2399 32.1546C23.9372 32.533 23.6218 32.9241 23.2308 33.2395C22.8397 33.5548 22.3856 33.7693 21.9441 33.9837C21.4143 34.236 20.9223 34.4757 20.6196 34.8415C20.3294 35.2073 20.2033 35.7497 20.0645 36.3174C19.951 36.7967 19.8375 37.2887 19.6104 37.7428C19.396 38.1969 19.0806 38.588 18.7779 38.9664C18.3994 39.4458 18.0336 39.8873 17.9327 40.3666C17.8192 40.846 17.9453 41.4262 18.0715 42.0317C18.1724 42.5237 18.2859 43.0409 18.2859 43.5581C18.2859 44.0879 18.185 44.5925 18.0715 45.0844C17.9453 45.6899 17.8192 46.2702 17.9327 46.7495C18.0462 47.2289 18.3994 47.683 18.7779 48.1497C19.0806 48.5282 19.396 48.9192 19.6104 49.3733C19.8375 49.8274 19.951 50.3194 20.0645 50.7988C20.2033 51.3664 20.3294 51.9088 20.6196 52.2746C20.9097 52.6405 21.4143 52.8801 21.9441 53.1324C22.3856 53.3469 22.8397 53.5613 23.2308 53.8767C23.6218 54.192 23.9372 54.5831 24.2399 54.9615C24.6057 55.4283 24.9589 55.8698 25.3752 56.0716C25.8041 56.286 26.3718 56.286 26.9646 56.2987C27.4566 56.3113 27.9738 56.3113 28.4658 56.4248C28.9577 56.5383 29.4118 56.7528 29.8533 56.9546C30.4336 57.2195 30.976 57.4844 31.5058 57.4844C32.0356 57.4844 32.5781 57.2321 33.1583 56.9546C33.5998 56.7528 34.054 56.5383 34.5459 56.4248C35.0505 56.3113 35.5551 56.2987 36.047 56.2987C36.6525 56.286 37.2202 56.286 37.6365 56.0716C38.0654 55.8572 38.4059 55.4283 38.7718 54.9615C39.0745 54.5831 39.3899 54.192 39.7809 53.8767C40.172 53.5613 40.6261 53.3469 41.0676 53.1324C41.5974 52.8801 42.0894 52.6405 42.3921 52.2746C42.6822 51.9088 42.8084 51.3664 42.9471 50.7988C43.0607 50.3194 43.1742 49.8274 43.4013 49.3733C43.6157 48.9192 43.9311 48.5282 44.2338 48.1497C44.6122 47.6704 44.9781 47.2289 45.079 46.7495C45.1925 46.2702 45.0664 45.6899 44.9402 45.0844C44.8393 44.5925 44.7258 44.0753 44.7258 43.5581C44.7258 43.0283 44.8267 42.5237 44.9402 42.0317C45.079 41.4262 45.2051 40.846 45.0916 40.3666ZM31.5058 54.4191C25.5266 54.4191 20.6574 49.5499 20.6574 43.5707C20.6574 37.5914 25.5266 32.7223 31.5058 32.7223C37.4851 32.7223 42.3543 37.5914 42.3543 43.5707C42.3416 49.5499 37.4851 54.4191 31.5058 54.4191ZM29.3362 29.0388C29.9795 28.7361 30.6985 28.3955 31.5058 28.3955C32.3006 28.3955 33.0322 28.7361 33.6755 29.0388C33.7764 29.0893 33.8647 29.1271 33.953 29.165V25.696H29.046V29.165C29.1469 29.1271 29.2352 29.0893 29.3362 29.0388ZM35.7569 23.2993V21.4954H27.2422V23.2993C27.2422 23.9552 27.7846 24.4976 28.4405 24.4976H34.5585C35.2145 24.4976 35.7569 23.9678 35.7569 23.2993ZM26.9646 20.2844H36.047L47.0342 4.47852H42.8588L31.9726 18.3922C31.859 18.5436 31.6824 18.6193 31.4932 18.6193C31.304 18.6193 31.1274 18.531 31.0139 18.3922L20.1402 4.47852H15.9648L26.9646 20.2844ZM41.3199 4.47852H38.0653L31.9726 12.2616C31.859 12.413 31.6824 12.5013 31.4932 12.5013C31.304 12.5013 31.1274 12.413 31.0139 12.2742L24.9211 4.49113H21.6666L31.4932 17.0425L41.3199 4.47852Z" fill="url(#paint0_linear_267_1882)"/>
<defs>
<linearGradient id="paint0_linear_267_1882" x1="31.4995" y1="4.4785" x2="31.4995" y2="57.4844" gradientUnits="userSpaceOnUse">
<stop stop-color="#E3043B"/>
<stop offset="1" stop-color="#004594"/>
</linearGradient>
</defs>
</svg>
