<svg width="63" height="62" viewBox="0 0 63 62" fill="none" xmlns="http://www.w3.org/2000/svg">
<path d="M16.8231 18.14L12.3702 15.5792C11.79 15.2513 11.0457 15.4405 10.7177 16.0208C10.3772 16.601 10.579 17.3453 11.1592 17.6732L15.6121 20.2466C15.8014 20.3475 16.0032 20.4106 16.2176 20.4106C16.6465 20.4106 17.0502 20.1835 17.2646 19.8051C17.6052 19.2248 17.4034 18.4806 16.8231 18.14ZM15.0697 28.0171C15.0697 27.3485 14.5273 26.8061 13.8587 26.8061H8.72466C8.05609 26.8061 7.51367 27.3485 7.51367 28.0171C7.51367 28.6857 8.05609 29.2281 8.72466 29.2281H13.8587C14.5273 29.2281 15.0697 28.6857 15.0697 28.0171ZM15.6121 35.7876L11.1592 38.3609C10.579 38.6889 10.3772 39.4332 10.7177 40.0134C10.9322 40.3919 11.3358 40.6189 11.7647 40.6189C11.9792 40.6189 12.181 40.5685 12.3702 40.4549L16.8231 37.8942C17.4034 37.5662 17.6052 36.822 17.2646 36.2417C16.9367 35.6488 16.1924 35.447 15.6121 35.7876ZM51.8282 38.3609L47.3753 35.7876C46.7951 35.4596 46.0508 35.6488 45.7228 36.2291C45.3949 36.8094 45.5841 37.5536 46.1643 37.8816L50.6172 40.4549C50.8064 40.5559 51.0083 40.6189 51.2227 40.6189C51.6516 40.6189 52.0553 40.3919 52.2697 40.0134C52.6103 39.4332 52.4085 38.6889 51.8282 38.3609ZM54.2754 26.8061H49.1413C48.4728 26.8061 47.9304 27.3485 47.9304 28.0171C47.9304 28.6857 48.4728 29.2281 49.1413 29.2281H54.2754C54.944 29.2281 55.4864 28.6857 55.4864 28.0171C55.4864 27.3485 54.944 26.8061 54.2754 26.8061ZM46.7824 20.398C46.9969 20.398 47.1987 20.3475 47.3879 20.234L51.8408 17.6606C52.4211 17.3327 52.6229 16.5884 52.2823 16.0081C51.9544 15.4279 51.2101 15.226 50.6298 15.5666L46.1769 18.14C45.5967 18.468 45.3949 19.2122 45.7354 19.7925C45.9499 20.1709 46.3535 20.398 46.7824 20.398ZM39.7183 13.788C39.9076 13.8889 40.1094 13.952 40.3238 13.952C40.7527 13.952 41.1564 13.7249 41.3708 13.3465L43.9442 8.89359C44.2722 8.31333 44.0829 7.56907 43.5027 7.2411C42.9224 6.91312 42.1782 7.10234 41.8502 7.6826L39.2768 12.1355C38.9363 12.7032 39.1381 13.4474 39.7183 13.788ZM31.5063 11.5805C32.1749 11.5805 32.7173 11.038 32.7173 10.3695V5.2354C32.7173 4.56684 32.1749 4.02441 31.5063 4.02441C30.8378 4.02441 30.2954 4.56684 30.2954 5.2354V10.3695C30.2954 11.038 30.8378 11.5805 31.5063 11.5805ZM31.5063 14.4061C24.5053 14.4061 18.8036 20.1204 18.8036 27.1341C18.8036 30.4517 19.7749 32.0789 20.9985 34.1225C22.2978 36.3048 23.7737 38.7646 24.3792 43.8356H28.0248V37.0995L24.6315 26.2637C24.5558 26.024 24.6441 25.7465 24.8459 25.5951C25.0478 25.4437 25.3379 25.4311 25.5523 25.5825C26.4353 26.188 27.331 26.188 28.3527 26.188H28.8952H28.9078H34.0923H34.1049H34.6473C35.6817 26.188 36.5647 26.188 37.4604 25.5825C37.6748 25.4437 37.9523 25.4437 38.1668 25.5951C38.3686 25.7465 38.4569 26.0114 38.3812 26.2637L34.9879 37.0995V43.8356H38.6335C39.239 38.7772 40.7149 36.3048 42.0142 34.1225C43.2378 32.0663 44.2091 30.4517 44.2091 27.1341C44.2091 20.1204 38.5074 14.4061 31.5063 14.4061ZM39.2012 45.0592C39.1885 45.0592 39.1759 45.0592 39.1759 45.0592C39.1633 45.0592 39.1507 45.0592 39.1381 45.0592H34.3824C30.8756 45.0592 27.3814 45.0592 23.8746 45.0592C23.8494 45.0592 23.8368 45.0592 23.8115 45.0592C22.9664 45.0718 22.2852 45.7656 22.2852 46.6108V49.1084C22.2852 49.9662 22.979 50.6726 23.8368 50.6726H39.1633C40.0211 50.6726 40.7149 49.9788 40.7149 49.1211V46.6234C40.7149 45.7656 40.0463 45.0718 39.2012 45.0592ZM31.5063 57.9764C34.9879 57.9764 37.8514 55.2895 38.1668 51.8836H24.8459C25.1487 55.2895 28.0248 57.9764 31.5063 57.9764ZM29.2357 43.8482H33.7643V37.6293H32.8939H30.1061H30.0935H30.0809H29.2231V43.8482H29.2357ZM30.7116 32.2555V36.4183H32.2884V32.2555C32.2884 32.1925 32.3011 32.1294 32.3137 32.0789C32.957 30.0606 33.3859 28.5217 33.4742 27.4116H29.5006C29.6016 28.5217 30.0178 30.0606 30.6612 32.0789C30.699 32.1294 30.7116 32.1925 30.7116 32.2555ZM26.1831 27.1972L29.0718 36.4183H29.488V32.3565C28.8195 30.2498 28.378 28.6352 28.2897 27.4116C27.6337 27.399 26.9147 27.399 26.1831 27.1972ZM36.817 27.1972C36.0854 27.399 35.3664 27.399 34.6978 27.399C34.6095 28.6352 34.168 30.2498 33.4994 32.3438V36.4057H33.9157L36.817 27.1972ZM21.6292 13.3465C21.8437 13.7249 22.2473 13.952 22.6762 13.952C22.8907 13.952 23.0925 13.8889 23.2817 13.788C23.862 13.4474 24.0638 12.7158 23.7232 12.1355L21.1499 7.6826C20.8219 7.10234 20.0777 6.90051 19.4974 7.2411C18.9171 7.56907 18.7153 8.31333 19.0559 8.89359L21.6292 13.3465Z" fill="url(#paint0_linear_267_1867)"/>
<defs>
<linearGradient id="paint0_linear_267_1867" x1="31.5" y1="4.0244" x2="31.5" y2="57.9764" gradientUnits="userSpaceOnUse">
<stop stop-color="#E3043B"/>
<stop offset="1" stop-color="#004594"/>
</linearGradient>
</defs>
</svg>
