<svg width="63" height="62" viewBox="0 0 63 62" fill="none" xmlns="http://www.w3.org/2000/svg">
<path d="M42.4182 38.4744C42.4182 37.3391 41.4973 36.4057 40.3494 36.4057H39.7944H23.2442C23.219 36.4057 23.2064 36.4057 23.1811 36.4057H22.664C21.5287 36.4057 20.5952 37.3265 20.5952 38.4744V40.5432H42.4182V38.4744ZM17.7822 41.7542C17.5677 41.7542 17.3911 41.9308 17.3911 42.1453V53.3343H45.6222V42.1453C45.6222 41.9308 45.4456 41.7542 45.2312 41.7542H43.0237H19.9771H17.7822ZM22.9919 44.6934H39.9962C40.3368 44.6934 40.6017 44.9583 40.6017 45.2989C40.6017 45.6395 40.3242 45.9044 39.9962 45.9044H22.9919C22.664 45.9044 22.3864 45.6395 22.3864 45.2989C22.3864 44.9709 22.664 44.6934 22.9919 44.6934ZM22.9919 49.1841H39.9962C40.3368 49.1841 40.6017 49.4616 40.6017 49.7896C40.6017 50.1302 40.3242 50.3951 39.9962 50.3951H22.9919C22.664 50.3951 22.3864 50.1176 22.3864 49.7896C22.3864 49.449 22.664 49.1841 22.9919 49.1841ZM47.0981 54.5452H46.2151H16.7856H15.9026C15.8774 54.5452 15.8522 54.5705 15.8522 54.5957V57.4844C15.8522 57.5096 15.8774 57.5349 15.9026 57.5349H47.0981C47.1234 57.5349 47.1486 57.5096 47.1486 57.4844V54.5957C47.1486 54.5705 47.1234 54.5452 47.0981 54.5452ZM33.4871 11.8454C33.361 11.8075 33.2475 11.7192 33.1718 11.6183L31.5067 9.23416L29.829 11.6057C29.7533 11.7192 29.6397 11.7949 29.5136 11.8327L26.7258 12.6905L28.4792 15.0242C28.5675 15.1377 28.6054 15.2639 28.6054 15.4026L28.5549 18.3166L31.3048 17.3705C31.431 17.3326 31.5697 17.3326 31.6959 17.3705L34.4585 18.3166L34.408 15.4026C34.408 15.2639 34.4458 15.1377 34.5341 15.0242L36.2876 12.6905L33.4871 11.8454ZM48.4353 6.57251H42.3046C42.4308 5.67689 42.5191 4.95786 42.5822 4.47852H20.4186C20.4817 4.95786 20.57 5.6895 20.6961 6.57251H14.5655C13.8969 6.57251 13.3545 7.11493 13.3545 7.7835V10.0667C13.3545 13.9141 14.7799 17.6102 17.3533 20.4736C19.5734 22.9587 22.5504 24.6364 25.805 25.2924L26.3978 25.4185C27.3818 27.071 27.735 28.7613 27.4448 30.4769C27.1295 32.3943 26.0194 34.0468 24.8715 35.2073H38.1167C36.9561 34.0468 35.8587 32.4069 35.5433 30.4769C35.2532 28.7613 35.6064 27.0584 36.5903 25.4185L37.1832 25.2924C40.4503 24.6238 43.4147 22.9587 45.6349 20.4736C48.1956 17.6102 49.6336 13.9141 49.6336 10.0667V7.7835C49.6463 7.11493 49.1038 6.57251 48.4353 6.57251ZM19.1445 18.8716C16.9748 16.4496 15.7765 13.3212 15.7765 10.0667V9.29723C15.7765 9.13325 15.9152 8.99449 16.0792 8.99449H21.0745C21.7305 12.9933 22.8279 18.4427 24.4426 22.0883C24.4552 22.1135 24.4678 22.1514 24.4804 22.1766C24.5309 22.3027 24.594 22.4163 24.6444 22.5424C22.5252 21.7981 20.633 20.5367 19.1445 18.8716ZM35.4298 19.6537C35.2658 19.7672 35.064 19.8051 34.8747 19.7294L31.4941 18.5689L28.1134 19.7294C28.0503 19.7546 27.9872 19.7672 27.9116 19.7672C27.7854 19.7672 27.6593 19.7294 27.5584 19.6537C27.3944 19.5402 27.3061 19.3509 27.3061 19.1491L27.3691 15.5792L25.2247 12.7284C25.1112 12.5644 25.0733 12.3625 25.1364 12.1733C25.1995 11.9841 25.3508 11.8327 25.54 11.7823L28.9586 10.7353L31.0021 7.82134C31.1156 7.65736 31.3048 7.56905 31.4941 7.56905C31.6959 7.56905 31.8725 7.66997 31.986 7.82134L34.0296 10.7479L37.4481 11.7949C37.6373 11.858 37.7887 11.9967 37.8517 12.1859C37.9148 12.3752 37.877 12.577 37.7634 12.741L35.619 15.5918L35.6821 19.1617C35.6821 19.3509 35.5938 19.5402 35.4298 19.6537ZM43.8562 18.8716C42.3677 20.5367 40.4756 21.8108 38.3563 22.5424C38.4068 22.4289 38.4699 22.3153 38.5203 22.1892C38.5329 22.1514 38.5455 22.1135 38.5708 22.0757C40.1854 18.4301 41.2829 12.9933 41.9388 8.99449H46.9341C47.0981 8.99449 47.2369 9.13325 47.2369 9.29723V10.0667C47.2243 13.3212 46.0259 16.4496 43.8562 18.8716Z" fill="url(#paint0_linear_267_1872)"/>
<defs>
<linearGradient id="paint0_linear_267_1872" x1="31.4942" y1="4.4785" x2="31.4942" y2="57.5349" gradientUnits="userSpaceOnUse">
<stop stop-color="#E3043B"/>
<stop offset="1" stop-color="#004594"/>
</linearGradient>
</defs>
</svg>
